<svg xmlns="http://www.w3.org/2000/svg" xmlns:xlink="http://www.w3.org/1999/xlink" width="384" viewBox="0 0 384 384" height="384" version="1.0"><defs><g id="a"><path d="M 3.734375 -34.953125 L 18.921875 -34.953125 C 22.472656 -34.953125 25.300781 -34.085938 27.40625 -32.359375 C 29.507812 -30.628906 30.5625 -28.4375 30.5625 -25.78125 C 30.5625 -21.832031 28.253906 -19.160156 23.640625 -17.765625 C 26.003906 -17.441406 27.878906 -16.460938 29.265625 -14.828125 C 30.660156 -13.203125 31.359375 -11.296875 31.359375 -9.109375 C 31.359375 -6.316406 30.335938 -4.097656 28.296875 -2.453125 C 26.253906 -0.816406 23.410156 0 19.765625 0 L 3.734375 0 Z M 12.25 -28.46875 L 12.25 -20.90625 L 17.828125 -20.90625 C 19.046875 -20.90625 20.03125 -21.21875 20.78125 -21.84375 C 21.53125 -22.476562 21.90625 -23.414062 21.90625 -24.65625 C 21.90625 -25.90625 21.53125 -26.851562 20.78125 -27.5 C 20.03125 -28.144531 19.046875 -28.46875 17.828125 -28.46875 Z M 12.25 -6.46875 L 18.671875 -6.46875 C 19.828125 -6.46875 20.785156 -6.816406 21.546875 -7.515625 C 22.316406 -8.210938 22.703125 -9.175781 22.703125 -10.40625 C 22.703125 -11.632812 22.335938 -12.613281 21.609375 -13.34375 C 20.878906 -14.070312 19.929688 -14.4375 18.765625 -14.4375 L 12.25 -14.4375 Z M 12.25 -6.46875"/></g><g id="b"><path d="M 20.40625 -8.703125 C 21.539062 -9.898438 22.109375 -11.628906 22.109375 -13.890625 C 22.109375 -16.148438 21.523438 -17.867188 20.359375 -19.046875 C 19.203125 -20.222656 17.828125 -20.8125 16.234375 -20.8125 C 14.640625 -20.8125 13.269531 -20.222656 12.125 -19.046875 C 10.976562 -17.867188 10.40625 -16.148438 10.40625 -13.890625 C 10.40625 -11.628906 10.992188 -9.898438 12.171875 -8.703125 C 13.347656 -7.515625 14.734375 -6.921875 16.328125 -6.921875 C 17.921875 -6.921875 19.28125 -7.515625 20.40625 -8.703125 Z M 5.953125 -3.578125 C 3.148438 -6.203125 1.75 -9.65625 1.75 -13.9375 C 1.75 -18.21875 3.140625 -21.644531 5.921875 -24.21875 C 8.710938 -26.789062 12.164062 -28.078125 16.28125 -28.078125 C 20.394531 -28.078125 23.835938 -26.789062 26.609375 -24.21875 C 29.378906 -21.644531 30.765625 -18.21875 30.765625 -13.9375 C 30.765625 -9.65625 29.382812 -6.203125 26.625 -3.578125 C 23.875 -0.960938 20.441406 0.34375 16.328125 0.34375 C 12.210938 0.34375 8.753906 -0.960938 5.953125 -3.578125 Z M 5.953125 -3.578125"/></g><g id="c"><path d="M 12.25 0 L 3.734375 0 L 3.734375 -36.84375 L 12.25 -36.84375 L 12.25 -16.171875 L 20.859375 -27.78125 L 32.3125 -27.78125 L 20.40625 -13.59375 L 32.3125 0 L 21 0 L 12.25 -11.09375 Z M 12.25 0"/></g><g id="d"><path d="M 3.734375 0 L 3.734375 -36.84375 L 12.25 -36.84375 L 12.25 0 Z M 3.734375 0"/></g><g id="e"><path d="M 5.375 -3.625 C 2.914062 -6.28125 1.6875 -9.679688 1.6875 -13.828125 C 1.6875 -17.984375 2.914062 -21.394531 5.375 -24.0625 C 7.832031 -26.738281 10.828125 -28.078125 14.359375 -28.078125 C 17.890625 -28.078125 20.601562 -26.765625 22.5 -24.140625 L 22.5 -27.78125 L 31.015625 -27.78125 L 31.015625 -0.15625 C 31.015625 3.726562 29.953125 6.96875 27.828125 9.5625 C 26.765625 10.882812 25.3125 11.910156 23.46875 12.640625 C 21.625 13.367188 19.492188 13.734375 17.078125 13.734375 C 12.828125 13.734375 9.457031 12.867188 6.96875 11.140625 C 4.476562 9.421875 3.066406 6.785156 2.734375 3.234375 L 11.09375 3.234375 C 11.894531 5.328125 13.890625 6.375 17.078125 6.375 C 18.640625 6.375 19.929688 5.847656 20.953125 4.796875 C 21.984375 3.753906 22.5 2.101562 22.5 -0.15625 L 22.5 -4.03125 C 20.445312 -1.113281 17.691406 0.34375 14.234375 0.34375 C 10.785156 0.34375 7.832031 -0.976562 5.375 -3.625 Z M 20.65625 -8.8125 C 21.882812 -10.007812 22.5 -11.703125 22.5 -13.890625 C 22.5 -16.078125 21.882812 -17.757812 20.65625 -18.9375 C 19.425781 -20.113281 18.015625 -20.703125 16.421875 -20.703125 C 14.828125 -20.703125 13.414062 -20.101562 12.1875 -18.90625 C 10.96875 -17.71875 10.359375 -16.023438 10.359375 -13.828125 C 10.359375 -11.640625 10.96875 -9.957031 12.1875 -8.78125 C 13.414062 -7.601562 14.828125 -7.015625 16.421875 -7.015625 C 18.015625 -7.015625 19.425781 -7.613281 20.65625 -8.8125 Z M 20.65625 -8.8125"/></g><g id="f"><path d="M 11 -0.546875 L 0.203125 -27.78125 L 9.859375 -27.78125 L 16.03125 -9.609375 L 22.796875 -27.78125 L 31.703125 -27.78125 L 13.984375 13.234375 L 5.078125 13.234375 Z M 11 -0.546875"/></g><clipPath id="g"><path d="M 49.882812 90.160156 L 383.632812 90.160156 L 383.632812 210.910156 L 49.882812 210.910156 Z M 49.882812 90.160156"/></clipPath></defs><path fill="#FFF" d="M-38.4 -38.4H422.40000000000003V422.40000000000003H-38.4z"/><path fill="#FFF" d="M-38.4 -38.4H422.40000000000003V422.40000000000003H-38.4z"/><path fill="#FFF" d="M-38.4 -38.4H422.40000000000003V422.40000000000003H-38.4z"/><g fill="#0056D3"><use x="52.673" y="276.171" xmlns:xlink="http://www.w3.org/1999/xlink" xlink:href="#a" xlink:type="simple" xlink:actuate="onLoad" xlink:show="embed"/></g><g fill="#0056D3"><use x="86.218" y="276.171" xmlns:xlink="http://www.w3.org/1999/xlink" xlink:href="#b" xlink:type="simple" xlink:actuate="onLoad" xlink:show="embed"/></g><g fill="#0056D3"><use x="118.718" y="276.171" xmlns:xlink="http://www.w3.org/1999/xlink" xlink:href="#b" xlink:type="simple" xlink:actuate="onLoad" xlink:show="embed"/></g><g fill="#0056D3"><use x="151.217" y="276.171" xmlns:xlink="http://www.w3.org/1999/xlink" xlink:href="#c" xlink:type="simple" xlink:actuate="onLoad" xlink:show="embed"/></g><g fill="#0056D3"><use x="183.716" y="276.171" xmlns:xlink="http://www.w3.org/1999/xlink" xlink:href="#b" xlink:type="simple" xlink:actuate="onLoad" xlink:show="embed"/></g><g fill="#0056D3"><use x="216.216" y="276.171" xmlns:xlink="http://www.w3.org/1999/xlink" xlink:href="#d" xlink:type="simple" xlink:actuate="onLoad" xlink:show="embed"/></g><g fill="#0056D3"><use x="232.192" y="276.171" xmlns:xlink="http://www.w3.org/1999/xlink" xlink:href="#b" xlink:type="simple" xlink:actuate="onLoad" xlink:show="embed"/></g><g fill="#0056D3"><use x="264.691" y="276.171" xmlns:xlink="http://www.w3.org/1999/xlink" xlink:href="#e" xlink:type="simple" xlink:actuate="onLoad" xlink:show="embed"/></g><g fill="#0056D3"><use x="299.43" y="276.171" xmlns:xlink="http://www.w3.org/1999/xlink" xlink:href="#f" xlink:type="simple" xlink:actuate="onLoad" xlink:show="embed"/></g><g clip-path="url(#g)"><path fill="#0056D3" d="M 221.085938 205.660156 C 216.234375 200.542969 211.496094 197.007812 206.832031 194.917969 C 243.769531 164.074219 260.960938 125 257.804688 110.59375 C 252.640625 144.292969 220.113281 183.074219 206.8125 194.910156 C 202.765625 193.101562 198.773438 192.390625 194.804688 192.695312 C 205.957031 177.28125 216.578125 115.773438 210.144531 101.054688 C 215.296875 103.625 220.675781 107.824219 229.757812 106.375 C 218.511719 103.070312 214.28125 99.679688 204.789062 93.648438 C 214.355469 126.5625 201.453125 175.417969 194.167969 192.75 C 191.3125 193.050781 188.472656 193.871094 185.628906 195.1875 C 185.90625 172.402344 159.894531 109.082031 143.640625 98.902344 C 153.25 99.019531 160.3125 97.054688 168.992188 94.394531 C 174.957031 104.679688 179.007812 116.925781 182.191406 129.058594 C 181.035156 115.800781 175.941406 102.570312 171.078125 90.234375 C 158.230469 93.992188 146.769531 95.03125 133.921875 95.089844 C 162.90625 120.324219 180.605469 173.625 184.78125 195.601562 C 182.9375 196.519531 181.09375 197.648438 179.246094 198.976562 C 170.390625 180.015625 114.316406 136.125 94.554688 135.582031 C 102.890625 130.808594 106.585938 126.230469 112.710938 119.539062 C 123.082031 125.375 138.707031 139.417969 147.621094 148.253906 C 139.878906 137.421875 122.855469 122.367188 112.390625 114.207031 C 103.234375 123.957031 93.890625 130.664062 82.851562 137.226562 C 121.609375 144.449219 165.15625 183.085938 178.867188 199.25 C 177.777344 200.050781 176.6875 200.910156 175.59375 201.847656 C 139.070312 190.738281 101.796875 187.878906 57.863281 203.582031 C 62.613281 196.53125 64.347656 190.179688 64.460938 183.128906 C 85.0625 178.910156 109.027344 175.558594 137.046875 176.890625 C 116.253906 172.558594 87.226562 171.863281 61.335938 178.625 C 59.167969 191.566406 54.828125 201.617188 49.878906 210.859375 C 98.113281 194.003906 139.28125 193.859375 177.328125 208.433594 C 193.074219 196.1875 207.890625 196.070312 219.003906 208.78125 C 263.6875 205.929688 338.929688 204.085938 383.613281 207.742188 C 344.703125 203.0625 269.257812 202.945312 221.085938 205.660156 Z M 221.085938 205.660156" fill-rule="evenodd"/></g></svg>