<?xml version="1.0" encoding="UTF-8"?>
<svg height="749.999995" preserveAspectRatio="xMidYMid meet" version="1.0"
    viewBox="0 0 750 749.999995" width="750" xmlns="http://www.w3.org/2000/svg"
    zoomAndPan="magnify">
    <defs>
        <clipPath id="clip-0">
            <path
                clip-rule="nonzero"
                d="M 0 176.265625 L 750 176.265625 L 750 510.765625 L 0 510.765625 Z M 0 176.265625 " />
        </clipPath>
    </defs>
    <g clip-path="url(#clip-0)">
        <path d="M 473.601562 496.21875 C 460.179688 482.042969 447.078125 472.25 434.175781 466.464844 C 536.347656 381.019531 583.90625 272.777344 575.183594 232.867188 C 560.890625 326.21875 470.914062 433.648438 434.117188 466.4375 C 422.921875 461.429688 411.878906 459.457031 400.898438 460.300781 C 431.75 417.601562 461.132812 247.222656 443.335938 206.441406 C 457.589844 213.558594 472.472656 225.199219 497.589844 221.179688 C 466.476562 212.027344 454.78125 202.632812 428.519531 185.929688 C 454.984375 277.097656 419.289062 412.4375 399.136719 460.460938 C 391.242188 461.285156 383.378906 463.554688 375.523438 467.207031 C 376.285156 404.085938 304.328125 228.675781 259.371094 200.480469 C 285.949219 200.800781 305.484375 195.359375 329.5 188 C 345.996094 216.484375 357.203125 250.410156 366.007812 284.015625 C 362.804688 247.289062 348.714844 210.644531 335.265625 176.476562 C 299.722656 186.878906 268.015625 189.757812 232.476562 189.917969 C 312.65625 259.824219 361.617188 407.480469 373.171875 468.351562 C 368.070312 470.902344 362.96875 474.023438 357.863281 477.699219 C 333.363281 425.179688 178.246094 303.597656 123.582031 302.085938 C 146.640625 288.867188 156.863281 276.1875 173.808594 257.652344 C 202.492188 273.820312 245.714844 312.71875 270.378906 337.199219 C 248.960938 307.1875 201.871094 265.488281 172.917969 242.882812 C 147.585938 269.886719 121.742188 288.460938 91.203125 306.644531 C 198.417969 326.652344 318.882812 433.683594 356.808594 478.464844 C 353.796875 480.679688 350.777344 483.0625 347.757812 485.65625 C 246.722656 454.886719 143.613281 446.960938 22.085938 490.457031 C 35.214844 470.933594 40.019531 453.328125 40.335938 433.804688 C 97.324219 422.113281 163.613281 412.832031 241.121094 416.523438 C 183.605469 404.519531 103.3125 402.597656 31.691406 421.324219 C 25.695312 457.179688 13.683594 485.019531 -0.0078125 510.621094 C 133.425781 463.929688 247.304688 463.53125 352.558594 503.902344 C 396.109375 469.972656 437.101562 469.65625 467.839844 504.859375 C 591.445312 496.964844 799.597656 491.859375 923.203125 501.980469 C 815.5625 489.015625 606.855469 488.695312 473.601562 496.21875 Z M 473.601562 496.21875 "
            fill="rgb(100%, 100%, 100%)"
            fill-opacity="1" fill-rule="evenodd" />
    </g>
</svg>